#N canvas 682 249 1127 791 10;
#X obj 86 80 vsl 20 128 12 23.5 0 0 nl-noteSliderS1 nl-noteSliderR1
empty 0 -9 0 10 -262144 -1 -262144 10100 0;
#N canvas 346 107 1087 998 nl-seqShowNote 0;
#X obj 71 103 r nl-noteSliderS1;
#X obj 70 124 r nl-noteSliderS2;
#X obj 182 103 r nl-noteSliderS3;
#X obj 182 124 r nl-noteSliderS4;
#X obj 302 102 r nl-noteSliderS5;
#X obj 302 123 r nl-noteSliderS6;
#X obj 414 102 r nl-noteSliderS7;
#X obj 414 123 r nl-noteSliderS8;
#X obj 181 310 1;
#X obj 403 405 pack i s;
#X msg 429 281 symbol C;
#X msg 425 314 symbol C#;
#X msg 499 283 symbol D;
#X msg 501 318 symbol D#;
#X msg 567 279 symbol E;
#X msg 640 280 symbol F;
#X msg 639 316 symbol F#;
#X msg 715 289 symbol G;
#X msg 726 323 symbol G#;
#X msg 804 277 symbol A;
#X msg 808 322 symbol A#;
#X msg 805 248 symbol B;
#X obj 181 286 t b;
#X obj 212 286 t b;
#X obj 244 286 t b;
#X obj 276 286 t b;
#X obj 309 286 t b;
#X obj 338 286 t b;
#X obj 369 286 t b;
#X obj 403 286 t b;
#X obj 212 310 2;
#X obj 244 310 3;
#X obj 276 310 4;
#X obj 309 310 5;
#X obj 338 310 6;
#X obj 369 310 7;
#X obj 403 310 8;
#X msg 403 432 \; nl-noter\$1 set \$2;
#X obj 439 213 route 12 13 14 15 16 17 18 19 20 21 22 23;
#X obj 437 161 i;
#X floatatom 475 187 5 0 0 0 - - -, f 5;
#X connect 0 0 22 0;
#X connect 0 0 39 0;
#X connect 1 0 23 0;
#X connect 1 0 39 0;
#X connect 2 0 24 0;
#X connect 2 0 39 0;
#X connect 3 0 25 0;
#X connect 3 0 39 0;
#X connect 4 0 26 0;
#X connect 4 0 39 0;
#X connect 5 0 27 0;
#X connect 5 0 39 0;
#X connect 6 0 28 0;
#X connect 6 0 39 0;
#X connect 7 0 29 0;
#X connect 7 0 39 0;
#X connect 8 0 9 0;
#X connect 9 0 37 0;
#X connect 10 0 9 1;
#X connect 11 0 9 1;
#X connect 12 0 9 1;
#X connect 13 0 9 1;
#X connect 14 0 9 1;
#X connect 15 0 9 1;
#X connect 16 0 9 1;
#X connect 17 0 9 1;
#X connect 18 0 9 1;
#X connect 19 0 9 1;
#X connect 20 0 9 1;
#X connect 21 0 9 1;
#X connect 22 0 8 0;
#X connect 23 0 30 0;
#X connect 24 0 31 0;
#X connect 25 0 32 0;
#X connect 26 0 33 0;
#X connect 27 0 34 0;
#X connect 28 0 35 0;
#X connect 29 0 36 0;
#X connect 30 0 9 0;
#X connect 31 0 9 0;
#X connect 32 0 9 0;
#X connect 33 0 9 0;
#X connect 34 0 9 0;
#X connect 35 0 9 0;
#X connect 36 0 9 0;
#X connect 38 0 10 0;
#X connect 38 1 11 0;
#X connect 38 2 12 0;
#X connect 38 3 13 0;
#X connect 38 4 14 0;
#X connect 38 5 15 0;
#X connect 38 6 16 0;
#X connect 38 7 17 0;
#X connect 38 8 18 0;
#X connect 38 9 19 0;
#X connect 38 10 20 0;
#X connect 38 11 21 0;
#X connect 39 0 38 0;
#X connect 39 0 40 0;
#X restore 512 66 pd nl-seqShowNote;
#X symbolatom 89 61 2 0 0 0 - nl-noter1 -, f 2;
#X obj 112 80 vsl 20 128 12 23.5 0 0 nl-noteSliderS2 nl-noteSliderR2
empty 0 -9 0 10 -262144 -1 -262144 2600 0;
#X symbolatom 115 61 2 0 0 0 - nl-noter2 -, f 2;
#X obj 139 80 vsl 20 128 12 23.5 0 0 nl-noteSliderS3 nl-noteSliderR3
empty 0 -9 0 10 -262144 -1 -262144 10400 0;
#X symbolatom 142 61 2 0 0 0 - nl-noter3 -, f 2;
#X obj 165 80 vsl 20 128 12 23.5 0 0 nl-noteSliderS4 nl-noteSliderR4
empty 0 -9 0 10 -262144 -1 -262144 5400 0;
#X symbolatom 168 61 2 0 0 0 - nl-noter4 -, f 2;
#X obj 192 80 vsl 20 128 12 23.5 0 0 nl-noteSliderS5 nl-noteSliderR5
empty 0 -9 0 10 -262144 -1 -262144 0 0;
#X symbolatom 195 61 2 0 0 0 - nl-noter5 -, f 2;
#X obj 218 80 vsl 20 128 12 23.5 0 0 nl-noteSliderS6 nl-noteSliderR6
empty 0 -9 0 10 -262144 -1 -262144 8400 0;
#X symbolatom 221 61 2 0 0 0 - nl-noter6 -, f 2;
#X obj 245 80 vsl 20 128 12 23.5 0 0 nl-noteSliderS7 nl-noteSliderR7
empty 0 -9 0 10 -262144 -1 -262144 10600 0;
#X symbolatom 248 61 2 0 0 0 - nl-noter7 -, f 2;
#X obj 271 80 vsl 20 128 12 23.5 0 0 nl-noteSliderS8 nl-noteSliderR8
empty 0 -9 0 10 -262144 -1 -262144 6200 0;
#X symbolatom 274 61 2 0 0 0 - nl-noter8 -, f 2;
#X obj 684 69 loadbang;
#X obj 86 323 vradio 20 1 0 8 nl-numberOfRepetsS1 nl-numberOfRepetsR1
empty 0 -8 0 10 -262144 -1 -1 3;
#X obj 112 323 vradio 20 1 0 8 nl-numberOfRepetsS2 nl-numberOfRepetsR2
empty 0 -8 0 10 -262144 -1 -1 1;
#X obj 139 323 vradio 20 1 0 8 nl-numberOfRepetsS3 nl-numberOfRepetsR3
empty 0 -8 0 10 -262144 -1 -1 0;
#X obj 165 323 vradio 20 1 0 8 nl-numberOfRepetsS4 nl-numberOfRepetsR4
empty 0 -8 0 10 -262144 -1 -1 0;
#X obj 192 323 vradio 20 1 0 8 nl-numberOfRepetsS5 nl-numberOfRepetsR5
empty 0 -8 0 10 -262144 -1 -1 0;
#X obj 218 323 vradio 20 1 0 8 nl-numberOfRepetsS6 nl-numberOfRepetsR6
empty 0 -8 0 10 -262144 -1 -1 1;
#X obj 245 323 vradio 20 1 0 8 nl-numberOfRepetsS7 nl-numberOfRepetsR7
empty 0 -8 0 10 -262144 -1 -1 0;
#X obj 271 323 vradio 20 1 0 8 nl-numberOfRepetsS8 nl-numberOfRepetsR8
empty 0 -8 0 10 -262144 -1 -1 1;
#X text 76 326 1;
#X text 76 347 2;
#X text 76 367 3;
#X text 76 387 4;
#X text 76 407 5;
#X text 76 427 6;
#X text 76 447 7;
#X text 76 467 8;
#X obj 86 489 vradio 20 1 0 4 nl-playModeS1 nl-playModeR1 empty 0 -8
0 10 -262144 -1 -1 0;
#X obj 112 489 vradio 20 1 0 4 nl-playModeS2 nl-playModeR2 empty 0
-8 0 10 -262144 -1 -1 0;
#X obj 139 489 vradio 20 1 0 4 nl-playModeS3 nl-playModeR3 empty 0
-8 0 10 -262144 -1 -1 0;
#X obj 165 489 vradio 20 1 0 4 nl-playModeS4 nl-playModeR4 empty 0
-8 0 10 -262144 -1 -1 0;
#X obj 192 489 vradio 20 1 0 4 nl-playModeS5 nl-playModeR5 empty 0
-8 0 10 -262144 -1 -1 0;
#X obj 218 489 vradio 20 1 0 4 nl-playModeS6 nl-playModeR6 empty 0
-8 0 10 -262144 -1 -1 0;
#X obj 245 489 vradio 20 1 0 4 nl-playModeS7 nl-playModeR7 empty 0
-8 0 10 -262144 -1 -1 0;
#X obj 271 489 vradio 20 1 0 4 nl-playModeS8 nl-playModeR8 empty 0
-8 0 10 -262144 -1 -1 0;
#X text 58 490 ....;
#X text 58 525 ____;
#X obj 86 217 vradio 20 1 0 5 nl-octaveS1 nl-octaveR1 empty 0 -8 0
10 -262144 -1 -1 2;
#X obj 112 217 vradio 20 1 0 5 nl-octaveS2 nl-octaveR2 empty 0 -8 0
10 -262144 -1 -1 2;
#X obj 139 217 vradio 20 1 0 5 nl-octaveS3 nl-octaveR3 empty 0 -8 0
10 -262144 -1 -1 2;
#X obj 165 217 vradio 20 1 0 5 nl-octaveS4 nl-octaveR4 empty 0 -8 0
10 -262144 -1 -1 2;
#X obj 192 217 vradio 20 1 0 5 nl-octaveS5 nl-octaveR5 empty 0 -8 0
10 -262144 -1 -1 2;
#X obj 218 217 vradio 20 1 0 5 nl-octaveS6 nl-octaveR6 empty 0 -8 0
10 -262144 -1 -1 2;
#X obj 245 217 vradio 20 1 0 5 nl-octaveS7 nl-octaveR7 empty 0 -8 0
10 -262144 -1 -1 2;
#X obj 271 217 vradio 20 1 0 5 nl-octaveS8 nl-octaveR8 empty 0 -8 0
10 -262144 -1 -1 2;
#X text 70 220 -2;
#X text 70 241 -1;
#X text 76 262 0;
#X text 76 281 1;
#N canvas 981 313 727 422 nl-saveNotes 0;
#X obj 73 95 r nl-noteSliderS1;
#X obj 72 116 r nl-noteSliderS2;
#X obj 184 95 r nl-noteSliderS3;
#X obj 184 116 r nl-noteSliderS4;
#X obj 304 94 r nl-noteSliderS5;
#X obj 304 115 r nl-noteSliderS6;
#X obj 416 94 r nl-noteSliderS7;
#X obj 416 115 r nl-noteSliderS8;
#X obj 15 155 t b;
#X msg 192 229 \; nl-notes 0 \$1 \$2 \$3 \$4 \$5 \$6 \$7 \$8;
#X obj 489 217 table nl-notes 8;
#X obj 192 195 pack 0 0 0 0 0 0 0 0;
#X obj 15 178 delay 5;
#X connect 0 0 8 0;
#X connect 0 0 11 0;
#X connect 1 0 8 0;
#X connect 1 0 11 1;
#X connect 2 0 8 0;
#X connect 2 0 11 2;
#X connect 3 0 8 0;
#X connect 3 0 11 3;
#X connect 4 0 8 0;
#X connect 4 0 11 4;
#X connect 5 0 8 0;
#X connect 5 0 11 5;
#X connect 6 0 8 0;
#X connect 6 0 11 6;
#X connect 7 0 8 0;
#X connect 7 0 11 7;
#X connect 8 0 12 0;
#X connect 11 0 9 0;
#X connect 12 0 11 0;
#X restore 512 92 pd nl-saveNotes;
#N canvas 969 333 727 422 nl-saveOctave 0;
#X obj 15 155 t b;
#X obj 192 195 pack 0 0 0 0 0 0 0 0;
#X obj 15 178 delay 5;
#X obj 80 53 r nl-octaveS1;
#X obj 80 75 r nl-octaveS2;
#X obj 175 53 r nl-octaveS3;
#X obj 175 75 r nl-octaveS4;
#X obj 271 53 r nl-octaveS5;
#X obj 271 75 r nl-octaveS6;
#X obj 368 55 r nl-octaveS7;
#X obj 368 78 r nl-octaveS8;
#X obj 489 217 table nl-octaves 8;
#X msg 192 229 \; nl-octaves 0 \$1 \$2 \$3 \$4 \$5 \$6 \$7 \$8;
#X connect 0 0 2 0;
#X connect 1 0 12 0;
#X connect 2 0 1 0;
#X connect 3 0 0 0;
#X connect 3 0 1 0;
#X connect 4 0 0 0;
#X connect 4 0 1 1;
#X connect 5 0 0 0;
#X connect 5 0 1 2;
#X connect 6 0 0 0;
#X connect 6 0 1 3;
#X connect 7 0 0 0;
#X connect 7 0 1 4;
#X connect 8 0 0 0;
#X connect 8 0 1 5;
#X connect 9 0 0 0;
#X connect 9 0 1 6;
#X connect 10 0 0 0;
#X connect 10 0 1 7;
#X restore 512 118 pd nl-saveOctave;
#N canvas 872 395 727 422 nl-saveRepets 0;
#X obj 15 155 t b;
#X obj 192 195 pack 0 0 0 0 0 0 0 0;
#X obj 15 178 delay 5;
#X obj 14 83 r nl-numberOfRepetsS1;
#X obj 14 112 r nl-numberOfRepetsS2;
#X obj 155 82 r nl-numberOfRepetsS3;
#X obj 159 108 r nl-numberOfRepetsS4;
#X obj 313 78 r nl-numberOfRepetsS5;
#X obj 313 100 r nl-numberOfRepetsS6;
#X obj 486 79 r nl-numberOfRepetsS7;
#X obj 486 102 r nl-numberOfRepetsS8;
#X msg 192 229 \; nl-repeats 0 \$1 \$2 \$3 \$4 \$5 \$6 \$7 \$8;
#X obj 500 198 table nl-repeats 8;
#X connect 0 0 2 0;
#X connect 1 0 11 0;
#X connect 2 0 1 0;
#X connect 3 0 0 0;
#X connect 3 0 1 0;
#X connect 4 0 0 0;
#X connect 4 0 1 1;
#X connect 5 0 0 0;
#X connect 5 0 1 2;
#X connect 6 0 0 0;
#X connect 6 0 1 3;
#X connect 7 0 0 0;
#X connect 7 0 1 4;
#X connect 8 0 0 0;
#X connect 8 0 1 5;
#X connect 9 0 0 0;
#X connect 9 0 1 6;
#X connect 10 0 0 0;
#X connect 10 0 1 7;
#X restore 512 144 pd nl-saveRepets;
#N canvas 872 395 727 422 nl-saveModes 0;
#X obj 15 155 t b;
#X obj 125 195 pack 0 0 0 0 0 0 0 0;
#X obj 15 178 delay 5;
#X obj 15 33 r nl-playModeS1;
#X obj 15 63 r nl-playModeS2;
#X obj 128 33 r nl-playModeS3;
#X obj 128 63 r nl-playModeS4;
#X obj 246 33 r nl-playModeS5;
#X obj 366 33 r nl-playModeS7;
#X obj 366 63 r nl-playModeS8;
#X obj 246 63 r nl-playModeS6;
#X obj 500 198 table nl-modes 8;
#X msg 125 229 \; nl-modes 0 \$1 \$2 \$3 \$4 \$5 \$6 \$7 \$8;
#X connect 0 0 2 0;
#X connect 1 0 12 0;
#X connect 2 0 1 0;
#X connect 3 0 0 0;
#X connect 3 0 1 0;
#X connect 4 0 0 0;
#X connect 4 0 1 1;
#X connect 5 0 0 0;
#X connect 5 0 1 2;
#X connect 6 0 0 0;
#X connect 6 0 1 3;
#X connect 7 0 0 0;
#X connect 7 0 1 4;
#X connect 8 0 0 0;
#X connect 8 0 1 6;
#X connect 9 0 0 0;
#X connect 9 0 1 7;
#X connect 10 0 0 0;
#X connect 10 0 1 5;
#X restore 512 170 pd nl-saveModes;
#X obj 760 92 bng 15 250 50 0 empty empty all 17 7 0 10 -262144 -1
-1;
#X obj 299 78 tgl 40 0 nl-start empty start 0 -7 0 10 -257985 -1 -1
1 1;
#N canvas 1100 363 805 707 nl-sequencer 0;
#X obj 140 332 metro 140;
#N canvas 604 339 560 368 nl-couter 0;
#X obj 195 138 + 1;
#X obj 168 138 i;
#X floatatom 168 160 5 0 0 0 - - -, f 5;
#X obj 168 218 moses;
#X text 247 64 reset;
#X obj 168 52 inlet;
#X obj 246 280 outlet;
#X obj 364 86 inlet;
#X floatatom 387 144 5 0 0 0 - - -, f 5;
#X obj 168 80 t b;
#X obj 248 221 bng 15 250 50 0 empty empty empty 17 7 0 10 -262144
-1 -1;
#X text 267 223 next step;
#X obj 86 215 outlet;
#X obj 163 255 bng 15 250 50 0 empty empty empty 17 7 0 10 -262144
-1 -1;
#X obj 131 288 outlet;
#X msg 249 86 0;
#X obj 292 147 - 1;
#X obj 111 242 r nl-start;
#X connect 0 0 1 1;
#X connect 1 0 0 0;
#X connect 1 0 2 0;
#X connect 2 0 12 0;
#X connect 2 0 3 0;
#X connect 3 0 13 0;
#X connect 3 1 10 0;
#X connect 5 0 9 0;
#X connect 7 0 8 0;
#X connect 7 0 16 0;
#X connect 9 0 1 0;
#X connect 10 0 6 0;
#X connect 10 0 15 0;
#X connect 13 0 14 0;
#X connect 15 0 1 1;
#X connect 16 0 3 1;
#X restore 140 372 pd nl-couter;
#X floatatom 140 402 5 0 0 3 subcounter - nl-subcounter, f 5;
#N canvas 49 107 450 300 nl.bpm 0;
#X obj 110 58 inlet;
#X obj 110 86 t b f;
#X obj 110 147 /;
#X msg 110 118 15000;
#X obj 110 173 outlet;
#X obj 210 135 outlet;
#X text 211 157 measure frequency;
#X obj 210 111 / 240;
#X text 79 194 quarter note time;
#X text 98 40 bpm input;
#X connect 0 0 1 0;
#X connect 0 0 7 0;
#X connect 1 0 3 0;
#X connect 1 1 2 1;
#X connect 2 0 4 0;
#X connect 3 0 2 0;
#X connect 7 0 5 0;
#X restore 266 167 pd nl.bpm;
#X floatatom 338 184 5 0 0 1 ms - nl-ms, f 5;
#X floatatom 266 138 5 0 0 2 bpm nl-bpm -, f 5;
#X obj 209 402 bng 15 250 50 0 nl-mainCounterBang empty main_counter_bang
17 7 0 10 -262144 -1 -1;
#N canvas 524 266 750 755 repeatCounter 0;
#X obj 127 420 + 1;
#X obj 127 260 r nl-mainCounterBang;
#X obj 127 461 outlet;
#X obj 127 306 int;
#X obj 127 396 tabread nl-repeats;
#X obj 127 359 mod 8;
#X obj 162 306 + 1, f 4;
#X obj 226 465 outlet;
#X msg 96 306 0;
#X obj 68 268 loadbang;
#X obj 70 186 r nl-start;
#X connect 0 0 2 0;
#X connect 1 0 3 0;
#X connect 3 0 5 0;
#X connect 3 0 6 0;
#X connect 4 0 0 0;
#X connect 5 0 4 0;
#X connect 5 0 7 0;
#X connect 6 0 3 1;
#X connect 8 0 3 0;
#X connect 9 0 8 0;
#X connect 10 0 8 0;
#X restore 209 332 pd repeatCounter;
#X obj 140 253 r nl-start;
#X floatatom 302 369 5 0 0 1 mainCounter - nl-mainCounter, f 5;
#X obj 33 370 s nl-mainBang;
#X obj 445 230 s nl-numberOfRepets;
#X obj 385 482 outlet;
#X obj 113 498 outlet;
#X obj 211 509 outlet;
#X obj 366 292 t b;
#X msg 367 326 0;
#X connect 0 0 1 0;
#X connect 0 0 10 0;
#X connect 1 0 2 0;
#X connect 1 0 13 0;
#X connect 1 2 6 0;
#X connect 3 0 4 0;
#X connect 3 0 0 1;
#X connect 5 0 3 0;
#X connect 6 0 14 0;
#X connect 7 0 1 1;
#X connect 7 0 11 0;
#X connect 7 1 9 0;
#X connect 7 1 12 0;
#X connect 8 0 0 0;
#X connect 8 0 15 0;
#X connect 15 0 16 0;
#X connect 16 0 9 0;
#X restore 511 205 pd nl-sequencer;
#X floatatom 300 138 5 50 200 2 bpm nl-bpmR nl-bpm, f 5;
#N canvas 610 434 860 464 nl-init 0;
#X msg 363 112 \; nl-noter\$1 set C;
#X obj 28 95 unpack 1 2 3 4 5 6 7 8;
#X obj 250 26 inlet;
#X msg 250 54 1 2 3 4 5 6 7 8;
#X msg 96 112 \; nl-numberOfRepetsR\$1 0;
#X msg 476 112 \; nl-playModeR\$1 0;
#X msg 249 252 \; nl-octaves 0 \$1 \$2 \$3 \$4 \$5 \$6 \$7 \$8;
#X msg 249 346 \; nl-modes 0 \$1 \$2 \$3 \$4 \$5 \$6 \$7 \$8;
#X msg 249 299 \; nl-repeats 0 \$1 \$2 \$3 \$4 \$5 \$6 \$7 \$8;
#X msg 581 112 \; nl-octaveR\$1 2;
#X msg 403 64 \; nl-bpmR 120;
#X obj 485 19 inlet;
#X obj 286 188 t b;
#X msg 250 214 \; nl-notes 0 36 36 36 36 36 36 36 36;
#X msg 244 112 \; nl-noteSliderR\$1 12;
#X connect 1 0 14 0;
#X connect 1 0 0 0;
#X connect 1 0 4 0;
#X connect 1 0 5 0;
#X connect 1 0 9 0;
#X connect 1 1 4 0;
#X connect 1 1 14 0;
#X connect 1 1 0 0;
#X connect 1 1 5 0;
#X connect 1 1 9 0;
#X connect 1 2 4 0;
#X connect 1 2 14 0;
#X connect 1 2 0 0;
#X connect 1 2 5 0;
#X connect 1 2 9 0;
#X connect 1 3 4 0;
#X connect 1 3 14 0;
#X connect 1 3 0 0;
#X connect 1 3 5 0;
#X connect 1 3 9 0;
#X connect 1 4 14 0;
#X connect 1 4 0 0;
#X connect 1 4 4 0;
#X connect 1 4 5 0;
#X connect 1 4 9 0;
#X connect 1 5 14 0;
#X connect 1 5 0 0;
#X connect 1 5 4 0;
#X connect 1 5 5 0;
#X connect 1 5 9 0;
#X connect 1 6 14 0;
#X connect 1 6 0 0;
#X connect 1 6 4 0;
#X connect 1 6 5 0;
#X connect 1 6 9 0;
#X connect 1 7 14 0;
#X connect 1 7 0 0;
#X connect 1 7 4 0;
#X connect 1 7 5 0;
#X connect 1 7 9 0;
#X connect 2 0 3 0;
#X connect 2 0 10 0;
#X connect 2 0 12 0;
#X connect 3 0 6 0;
#X connect 3 0 7 0;
#X connect 3 0 8 0;
#X connect 3 0 1 0;
#X connect 11 0 10 0;
#X connect 12 0 13 0;
#X restore 684 139 pd nl-init;
#X obj 764 118 bng 15 250 50 0 empty empty bpm 17 7 0 10 -262144 -1
-1;
#X obj 86 574 bng 20 250 50 0 empty nl-currentStepR1 empty 17 7 0 10
-1 -257985 -257985;
#X obj 112 574 bng 20 250 50 0 empty nl-currentStepR2 empty 17 7 0
10 -1 -257985 -257985;
#X obj 139 574 bng 20 250 50 0 empty nl-currentStepR3 empty 17 7 0
10 -1 -257985 -257985;
#X obj 165 574 bng 20 250 50 0 empty nl-currentStepR4 empty 17 7 0
10 -1 -257985 -257985;
#X obj 192 574 bng 20 250 50 0 empty nl-currentStepR5 empty 17 7 0
10 -1 -257985 -257985;
#X obj 218 574 bng 20 250 50 0 empty nl-currentStepR6 empty 17 7 0
10 -1 -257985 -257985;
#X obj 245 574 bng 20 250 50 0 empty nl-currentStepR7 empty 17 7 0
10 -1 -257985 -257985;
#X obj 271 574 bng 20 250 50 0 empty nl-currentStepR8 empty 17 7 0
10 -1 -257985 -257985;
#X text 58 507 .___;
#N canvas 1430 557 450 300 nl-currentStep 0;
#X obj 151 35 inlet;
#X msg 136 122 \; nl-currentStepR\$1 1;
#X obj 136 7 r nl-mainBang;
#X floatatom 136 69 5 0 0 0 - - -, f 5;
#X obj 136 93 + 1, f 6;
#X connect 0 0 3 0;
#X connect 2 0 3 0;
#X connect 3 0 4 0;
#X connect 4 0 1 0;
#X restore 598 242 pd nl-currentStep;
#X obj 89 613 hsl 203 15 0.02 0.9 0 0 nl-decay empty decay -2 -8 0
10 -262144 -1 -1 16200 1;
#N canvas 49 92 902 753 nl-play 0;
#X floatatom 316 132 5 0 0 0 - - -, f 5;
#X obj 316 159 tabread nl-notes;
#X obj 426 160 tabread nl-octaves;
#X obj 411 213 *;
#X floatatom 411 235 5 0 0 1 midi_note - -, f 5;
#X obj 316 196 i;
#X obj 205 160 tabread nl-modes;
#X floatatom 205 182 5 0 0 0 - - -, f 5;
#X obj 307 608 makenote 100 50;
#X floatatom 316 218 5 0 0 0 - - -, f 5;
#X obj 426 182 + 1;
#X obj 205 239 bng 15 250 50 0 empty empty empty 17 7 0 10 -262144
-1 -1;
#X obj 228 239 bng 15 250 50 0 empty empty empty 17 7 0 10 -262144
-1 -1;
#X obj 251 239 bng 15 250 50 0 empty empty empty 17 7 0 10 -262144
-1 -1;
#X obj 205 211 select 0 1 2;
#X obj 307 551 i;
#X obj 123 225 bng 15 250 50 0 empty empty empty 17 7 0 10 -262144
-1 -1;
#X obj 162 424 spigot;
#X msg 208 351 0;
#X obj 194 398 tgl 15 0 empty empty empty 17 7 0 10 -262144 -1 -1 1
1;
#X msg 176 350 1;
#X obj 267 517 del 10;
#X obj 557 159 tabread nl-repeats;
#X obj 557 181 + 1;
#X floatatom 557 203 5 0 0 0 - - -, f 5;
#X obj 732 281 r nl-ms;
#X floatatom 732 309 5 0 0 0 - - -, f 5;
#X obj 557 246 route 1 2 3 4 5 6 7 8;
#X obj 547 268 bng 15 250 50 0 empty empty empty 17 7 0 10 -262144
-1 -1;
#X obj 567 268 bng 15 250 50 0 empty empty empty 17 7 0 10 -262144
-1 -1;
#X obj 588 269 bng 15 250 50 0 empty empty empty 17 7 0 10 -262144
-1 -1;
#X obj 608 269 bng 15 250 50 0 empty empty empty 17 7 0 10 -262144
-1 -1;
#X obj 630 269 bng 15 250 50 0 empty empty empty 17 7 0 10 -262144
-1 -1;
#X obj 650 269 bng 15 250 50 0 empty empty empty 17 7 0 10 -262144
-1 -1;
#X obj 671 270 bng 15 250 50 0 empty empty empty 17 7 0 10 -262144
-1 -1;
#X obj 691 270 bng 15 250 50 0 empty empty empty 17 7 0 10 -262144
-1 -1;
#X obj 490 341 * 1;
#X obj 530 341 * 2;
#X obj 568 341 * 3;
#X obj 605 341 * 4;
#X obj 641 341 * 5;
#X obj 680 341 * 6;
#X obj 719 342 * 7;
#X obj 757 342 * 8;
#X floatatom 490 377 5 0 0 0 - - -, f 5;
#X floatatom 530 377 5 0 0 0 - - -, f 5;
#X floatatom 568 377 5 0 0 0 - - -, f 5;
#X floatatom 605 377 5 0 0 0 - - -, f 5;
#X floatatom 641 377 5 0 0 0 - - -, f 5;
#X floatatom 680 377 5 0 0 0 - - -, f 5;
#X floatatom 719 378 5 0 0 0 - - -, f 5;
#X floatatom 757 378 5 0 0 0 - - -, f 5;
#X msg 733 242 0;
#X obj 733 215 loadbang;
#X obj 580 478 * 0.8;
#X floatatom 622 498 5 0 0 0 - - -, f 5;
#X floatatom 533 520 5 0 0 0 - - -, f 5;
#X obj 444 541 i;
#X obj 622 469 r nl-decay;
#X obj 360 520 del 5;
#X obj 417 489 del 5;
#X obj 759 463 t b;
#X obj 635 595 s nl-decayTotal;
#X obj 316 104 inlet;
#X obj 123 183 inlet;
#X obj 307 646 noteout;
#X obj 400 549 i;
#X obj 462 414 r nl-decay;
#X floatatom 487 451 5 0 0 0 - - -, f 5;
#X obj 425 450 *;
#X obj 454 462 t b;
#X obj 444 577 spigot;
#X msg 490 504 0;
#X obj 476 551 tgl 15 0 empty empty empty 17 7 0 10 -262144 -1 -1 0
1;
#X msg 458 503 1;
#X connect 0 0 1 0;
#X connect 0 0 2 0;
#X connect 0 0 6 0;
#X connect 0 0 22 0;
#X connect 1 0 5 0;
#X connect 2 0 10 0;
#X connect 3 0 4 0;
#X connect 4 0 15 1;
#X connect 5 0 3 0;
#X connect 5 0 9 0;
#X connect 6 0 7 0;
#X connect 7 0 14 0;
#X connect 8 0 65 0;
#X connect 8 1 65 1;
#X connect 10 0 3 1;
#X connect 11 0 20 0;
#X connect 11 0 59 0;
#X connect 11 0 72 0;
#X connect 12 0 18 0;
#X connect 12 0 21 0;
#X connect 12 0 59 0;
#X connect 12 0 72 0;
#X connect 13 0 18 0;
#X connect 13 0 21 0;
#X connect 13 0 60 0;
#X connect 13 0 74 0;
#X connect 14 0 11 0;
#X connect 14 1 12 0;
#X connect 14 2 13 0;
#X connect 15 0 8 0;
#X connect 16 0 17 0;
#X connect 17 0 21 0;
#X connect 18 0 19 0;
#X connect 19 0 17 1;
#X connect 20 0 19 0;
#X connect 21 0 15 0;
#X connect 22 0 23 0;
#X connect 23 0 24 0;
#X connect 24 0 27 0;
#X connect 25 0 26 0;
#X connect 26 0 36 0;
#X connect 26 0 37 0;
#X connect 26 0 38 0;
#X connect 26 0 40 0;
#X connect 26 0 41 0;
#X connect 26 0 42 0;
#X connect 26 0 43 0;
#X connect 26 0 39 0;
#X connect 27 0 28 0;
#X connect 27 1 29 0;
#X connect 27 2 30 0;
#X connect 27 3 31 0;
#X connect 27 4 32 0;
#X connect 27 5 33 0;
#X connect 27 6 34 0;
#X connect 27 7 35 0;
#X connect 28 0 44 0;
#X connect 29 0 45 0;
#X connect 30 0 46 0;
#X connect 31 0 47 0;
#X connect 32 0 48 0;
#X connect 33 0 49 0;
#X connect 34 0 50 0;
#X connect 35 0 51 0;
#X connect 36 0 44 0;
#X connect 37 0 45 0;
#X connect 38 0 46 0;
#X connect 39 0 47 0;
#X connect 40 0 48 0;
#X connect 41 0 49 0;
#X connect 42 0 50 0;
#X connect 43 0 51 0;
#X connect 44 0 54 0;
#X connect 44 0 69 0;
#X connect 45 0 54 0;
#X connect 46 0 54 0;
#X connect 47 0 54 0;
#X connect 48 0 54 0;
#X connect 49 0 54 0;
#X connect 50 0 54 0;
#X connect 51 0 54 0;
#X connect 52 0 26 0;
#X connect 53 0 52 0;
#X connect 54 0 56 0;
#X connect 55 0 54 1;
#X connect 55 0 61 0;
#X connect 56 0 57 1;
#X connect 56 0 62 0;
#X connect 56 0 70 0;
#X connect 57 0 71 0;
#X connect 58 0 55 0;
#X connect 59 0 66 0;
#X connect 60 0 57 0;
#X connect 61 0 24 0;
#X connect 63 0 0 0;
#X connect 64 0 16 0;
#X connect 66 0 8 2;
#X connect 67 0 68 0;
#X connect 67 0 69 1;
#X connect 69 0 66 1;
#X connect 70 0 60 0;
#X connect 71 0 8 2;
#X connect 72 0 73 0;
#X connect 73 0 71 1;
#X connect 74 0 73 0;
#X restore 511 240 pd nl-play;
#X text 76 301 2;
#X connect 17 0 64 0;
#X connect 60 0 64 0;
#X connect 62 0 77 0;
#X connect 62 2 75 0;
#X connect 62 2 77 1;
#X connect 65 0 64 1;
#X coords 0 791 1 790 210 305 0;
