#N canvas 286 82 1616 998 10;
#X obj 90 130 vsl 15 94 24 60 0 1 nl.note empty empty 0 -9 0 10 -261234
-1 -1 5200 0;
#X obj 114 130 vsl 15 94 24 60 0 1 nl.note empty empty 0 -9 0 10 -261234
-1 -1 7500 0;
#X obj 138 130 vsl 15 94 24 60 0 1 nl.note empty empty 0 -9 0 10 -261234
-1 -1 6100 0;
#X obj 162 130 vsl 15 94 24 60 0 1 nl.note empty empty 0 -9 0 10 -261234
-1 -1 6400 0;
#X obj 186 130 vsl 15 94 24 60 0 1 nl.note empty empty 0 -9 0 10 -261234
-1 -1 5500 0;
#X obj 210 130 vsl 15 94 24 60 0 1 nl.note empty empty 0 -9 0 10 -261234
-1 -1 5900 0;
#X obj 234 130 vsl 15 94 24 60 0 1 nl.note empty empty 0 -9 0 10 -261234
-1 -1 5000 0;
#X obj 258 130 vsl 15 94 24 60 0 1 nl.note empty empty 0 -9 0 10 -261234
-1 -1 5700 0;
#X obj 90 231 vradio 15 1 1 4 empty empty empty 0 -8 0 10 -262144 -1
-1 3;
#X text 80 233 1;
#X text 80 247 2;
#X text 80 262 3;
#X text 80 276 4;
#X obj 114 231 vradio 15 1 1 4 empty empty empty 0 -8 0 10 -262144
-1 -1 0;
#X obj 138 231 vradio 15 1 1 4 empty empty empty 0 -8 0 10 -262144
-1 -1 0;
#X obj 162 231 vradio 15 1 1 4 empty empty empty 0 -8 0 10 -262144
-1 -1 2;
#X obj 186 231 vradio 15 1 1 4 empty empty empty 0 -8 0 10 -262144
-1 -1 0;
#X obj 210 231 vradio 15 1 1 4 empty empty empty 0 -8 0 10 -262144
-1 -1 0;
#X obj 234 231 vradio 15 1 1 4 empty empty empty 0 -8 0 10 -262144
-1 -1 2;
#X obj 258 231 vradio 15 1 1 4 empty empty empty 0 -8 0 10 -262144
-1 -1 0;
#X obj 427 291 pack 0 0 0 0 0 0 0 0;
#X obj 90 295 vradio 15 1 0 3 empty empty empty 0 -8 0 10 -262130 -1
-1 0;
#X text 74 296 --;
#X text 74 304 __;
#X obj 114 295 vradio 15 1 0 3 empty empty empty 0 -8 0 10 -262130
-1 -1 1;
#X obj 138 295 vradio 15 1 0 3 empty empty empty 0 -8 0 10 -262130
-1 -1 2;
#X obj 162 295 vradio 15 1 0 3 empty empty empty 0 -8 0 10 -262130
-1 -1 1;
#X obj 186 295 vradio 15 1 0 3 empty empty empty 0 -8 0 10 -262130
-1 -1 2;
#X obj 210 295 vradio 15 1 0 3 empty empty empty 0 -8 0 10 -262130
-1 -1 1;
#X obj 234 295 vradio 15 1 0 3 empty empty empty 0 -8 0 10 -262130
-1 -1 0;
#X obj 258 295 vradio 15 1 0 3 empty empty empty 0 -8 0 10 -262130
-1 -1 1;
#X obj 431 340 pack 0 0 0 0 0 0 0 0;
#X obj 10 340 t b;
#X obj 91 84 select 0 1 2 3 4 5 6 7;
#X obj 91 110 bng 15 100 50 0 empty empty empty 17 7 0 10 -262144 -1
-1;
#X obj 114 110 bng 15 100 50 0 empty empty empty 17 7 0 10 -262144
-1 -1;
#X obj 137 110 bng 15 100 50 0 empty empty empty 17 7 0 10 -262144
-1 -1;
#X obj 161 110 bng 15 100 50 0 empty empty empty 17 7 0 10 -262144
-1 -1;
#X obj 186 110 bng 15 100 50 0 empty empty empty 17 7 0 10 -262144
-1 -1;
#X obj 210 110 bng 15 100 50 0 empty empty empty 17 7 0 10 -262144
-1 -1;
#X obj 234 110 bng 15 100 50 0 empty empty empty 17 7 0 10 -262144
-1 -1;
#X obj 258 110 bng 15 100 50 0 empty empty empty 17 7 0 10 -262144
-1 -1;
#X floatatom 91 65 5 0 0 0 - - -, f 5;
#X obj 149 44 r nl.mainBang;
#N canvas 49 107 450 250 (subpatch) 0;
#X array nl.notes 8 float 2;
#X coords 0 60 8 0 100 60 1 0 0;
#X restore 545 54 graph;
#X obj 14 227 t b;
#X obj 428 227 pack 0 0 0 0 0 0 0 0;
#X msg 428 188 \; nl.notes 0 \$1 \$2 \$3 \$4 \$5 \$6 \$7 \$8;
#X msg 1283 116 \; nl.notes bounds 0 60 8 0;
#X text 1292 71 init;
#X msg 1283 275 \; nl.bpm 125;
#X obj 1283 92 loadbang;
#X msg 428 253 \; nl.repeats 0 \$1 \$2 \$3 \$4 \$5 \$6 \$7 \$8;
#N canvas 49 82 450 250 (subpatch) 0;
#X array nl.repeats 8 float 3;
#A 0 3 0 0 2 0 0 2 0;
#X coords 0 4 8 0 100 60 1 0 0;
#X restore 649 53 graph;
#X msg 1283 153 \; nl.repeats bounds 0 4 8 0;
#X obj 14 203 s nl.b1;
#X obj 428 143 r nl.b1;
#X obj 13 291 t b;
#X obj 13 264 s nl.b2;
#X msg 431 363 \; nl.mode 0 \$1 \$2 \$3 \$4 \$5 \$6 \$7 \$8;
#X obj 555 290 r nl.b2;
#N canvas 0 50 450 250 (subpatch) 0;
#X array nl.mode 8 float 3;
#A 0 0 1 2 1 2 1 0 1;
#X coords 0 3 8 0 100 60 1 0 0;
#X restore 752 54 graph;
#X obj 10 362 s nl.b3;
#X obj 561 340 r nl.b3;
#X obj 611 340 delay 10;
#X obj 605 290 delay 10;
#X obj 428 166 delay 10;
#X msg 1283 193 \; nl.mode bounds 0 3 8 0;
#X msg 1283 232 \; nl.decay bounds 0 127 8 0;
#X obj 1123 482 metro 125;
#X obj 1220 615 + 1;
#X obj 1192 614 i;
#X floatatom 1192 657 5 0 0 0 - - -, f 5;
#N canvas 715 607 450 300 nl.Couter 0;
#X obj 195 138 + 1;
#X obj 168 138 i;
#X floatatom 168 160 5 0 0 0 - - -, f 5;
#X msg 199 103 0;
#X obj 168 185 moses;
#X text 222 102 reset;
#X obj 168 52 inlet;
#X obj 201 254 outlet;
#X obj 277 52 inlet;
#X floatatom 300 110 5 0 0 0 - - -, f 5;
#X obj 168 80 t b;
#X obj 194 217 bng 15 250 50 0 empty empty empty 17 7 0 10 -262144
-1 -1;
#X text 213 219 next step;
#X obj 11 250 outlet;
#X obj 163 222 bng 15 250 50 0 empty empty empty 17 7 0 10 -262144
-1 -1;
#X obj 131 255 outlet;
#X connect 0 0 1 1;
#X connect 1 0 0 0;
#X connect 1 0 2 0;
#X connect 2 0 4 0;
#X connect 2 0 13 0;
#X connect 3 0 1 0;
#X connect 4 0 14 0;
#X connect 4 1 11 0;
#X connect 6 0 10 0;
#X connect 8 0 4 1;
#X connect 8 0 9 0;
#X connect 10 0 1 0;
#X connect 11 0 3 0;
#X connect 11 0 7 0;
#X connect 14 0 15 0;
#X restore 1123 588 pd nl.Couter;
#X floatatom 1123 656 5 0 0 0 - - -, f 5;
#X obj 1192 636 mod 8;
#X obj 1192 513 tabread nl.repeats;
#X obj 1192 676 s nl.mainCouter;
#X obj 1192 482 r nl.mainCouter;
#X obj 1192 537 + 1;
#X floatatom 1192 559 5 0 0 0 - - -, f 5;
#X obj 91 23 r nl.mainCouter;
#X obj 1042 531 s nl.mainBang;
#X obj 244 74 tgl 30 0 nl.start empty start 0 -7 0 10 -257985 -159808
-4160 0 1;
#N canvas 49 92 450 300 nl.bpm 0;
#X obj 110 58 inlet;
#X obj 110 86 t b f;
#X obj 110 147 /;
#X msg 110 118 15000;
#X obj 110 173 outlet;
#X obj 210 135 outlet;
#X text 211 157 measure frequency;
#X obj 210 111 / 240;
#X text 79 194 quarter note time;
#X text 98 40 bpm input;
#X connect 0 0 1 0;
#X connect 0 0 7 0;
#X connect 1 0 3 0;
#X connect 1 1 2 1;
#X connect 2 0 4 0;
#X connect 3 0 2 0;
#X connect 7 0 5 0;
#X restore 1174 419 pd nl.bpm;
#X obj 1246 450 s nl.timeMs;
#X floatatom 1203 436 5 0 0 0 - - -, f 5;
#X floatatom 1174 398 5 0 0 2 bpm nl.bpm -, f 5;
#X obj 496 527 r nl.mainCouter;
#X obj 496 551 tabread nl.mode;
#X floatatom 496 573 5 0 0 0 - - -, f 5;
#X obj 496 602 moses 1;
#X obj 601 660 tabread nl.notes;
#X obj 601 635 r nl.mainCouter;
#X floatatom 601 706 5 0 0 0 - - -, f 5;
#X obj 601 682 i;
#X obj 535 755 i;
#X obj 535 698 delay 10;
#X obj 501 860 noteout;
#X obj 411 801 makenote 100 75;
#X obj 535 802 makenote 100 250;
#X obj 411 729 delay 10;
#X obj 411 762 i;
#X obj 1230 573 s nl.repetNo;
#X obj 669 765 r nl.repetNo;
#X obj 669 785 * 120;
#X floatatom 669 807 5 0 0 0 - - -, f 5;
#X obj 1157 717 s nl.beat;
#X obj 349 673 tgl 15 0 empty empty empty 17 7 0 10 -262144 -1 -1 0
1;
#N canvas 49 82 450 300 nl.openGate 0;
#X obj 118 141 expr 1;
#X obj 161 140 expr 0;
#X obj 118 174 outlet;
#X obj 118 100 inlet;
#X obj 161 98 inlet;
#X connect 0 0 2 0;
#X connect 1 0 2 0;
#X connect 3 0 0 0;
#X connect 4 0 1 0;
#X restore 349 619 pd nl.openGate;
#X obj 316 712 spigot;
#X obj 316 529 r nl.mainBang;
#X obj 241 743 r nl.timeMs;
#X floatatom 241 787 5 0 0 0 - - -, f 5;
#X obj 241 765 * 0.6;
#X obj 535 639 moses 2;
#X obj 1123 351 r nl.start;
#X obj 93 343 hsl 128 15 50 200 0 0 empty empty empty -2 -8 0 10 -262144
-1 -1 6350 1;
#X obj 90 363 i;
#X floatatom 225 344 4 0 0 1 bpm - nl.bpm, f 4;
#X obj 89 399 r nl.bpm;
#X connect 0 0 45 0;
#X connect 0 0 46 0;
#X connect 1 0 45 0;
#X connect 1 0 46 1;
#X connect 2 0 45 0;
#X connect 2 0 46 2;
#X connect 3 0 45 0;
#X connect 3 0 46 3;
#X connect 4 0 45 0;
#X connect 4 0 46 4;
#X connect 5 0 45 0;
#X connect 5 0 46 5;
#X connect 6 0 45 0;
#X connect 6 0 46 6;
#X connect 7 0 45 0;
#X connect 7 0 46 7;
#X connect 8 0 20 0;
#X connect 8 0 57 0;
#X connect 13 0 20 1;
#X connect 13 0 57 0;
#X connect 14 0 20 2;
#X connect 14 0 57 0;
#X connect 15 0 20 3;
#X connect 15 0 57 0;
#X connect 16 0 20 4;
#X connect 16 0 57 0;
#X connect 17 0 20 5;
#X connect 17 0 57 0;
#X connect 18 0 20 6;
#X connect 18 0 57 0;
#X connect 19 0 20 7;
#X connect 19 0 57 0;
#X connect 20 0 52 0;
#X connect 21 0 32 0;
#X connect 21 0 31 0;
#X connect 24 0 32 0;
#X connect 24 0 31 1;
#X connect 25 0 32 0;
#X connect 25 0 31 2;
#X connect 26 0 32 0;
#X connect 26 0 31 3;
#X connect 27 0 32 0;
#X connect 27 0 31 4;
#X connect 28 0 32 0;
#X connect 28 0 31 5;
#X connect 29 0 32 0;
#X connect 29 0 31 6;
#X connect 30 0 32 0;
#X connect 30 0 31 7;
#X connect 31 0 59 0;
#X connect 32 0 62 0;
#X connect 33 0 34 0;
#X connect 33 1 35 0;
#X connect 33 2 36 0;
#X connect 33 3 37 0;
#X connect 33 4 38 0;
#X connect 33 5 39 0;
#X connect 33 6 40 0;
#X connect 33 7 41 0;
#X connect 42 0 33 0;
#X connect 43 0 42 0;
#X connect 45 0 55 0;
#X connect 46 0 47 0;
#X connect 51 0 48 0;
#X connect 51 0 50 0;
#X connect 51 0 54 0;
#X connect 51 0 67 0;
#X connect 51 0 68 0;
#X connect 56 0 66 0;
#X connect 57 0 58 0;
#X connect 60 0 65 0;
#X connect 63 0 64 0;
#X connect 64 0 31 0;
#X connect 65 0 20 0;
#X connect 66 0 46 0;
#X connect 69 0 73 0;
#X connect 69 0 82 0;
#X connect 70 0 71 1;
#X connect 71 0 70 0;
#X connect 71 0 75 0;
#X connect 72 0 77 0;
#X connect 73 0 74 0;
#X connect 73 1 107 0;
#X connect 73 2 71 0;
#X connect 75 0 72 0;
#X connect 76 0 79 0;
#X connect 78 0 76 0;
#X connect 79 0 80 0;
#X connect 80 0 73 1;
#X connect 80 0 103 0;
#X connect 81 0 42 0;
#X connect 84 0 86 0;
#X connect 84 0 69 1;
#X connect 86 0 85 0;
#X connect 87 0 84 0;
#X connect 88 0 89 0;
#X connect 89 0 90 0;
#X connect 90 0 91 0;
#X connect 91 0 109 0;
#X connect 91 1 109 1;
#X connect 91 1 115 0;
#X connect 92 0 95 0;
#X connect 93 0 92 0;
#X connect 94 0 96 1;
#X connect 94 0 102 1;
#X connect 95 0 94 0;
#X connect 96 0 100 0;
#X connect 97 0 96 0;
#X connect 99 0 98 0;
#X connect 99 1 98 1;
#X connect 100 0 98 0;
#X connect 100 1 98 1;
#X connect 101 0 102 0;
#X connect 102 0 99 0;
#X connect 104 0 105 0;
#X connect 105 0 100 2;
#X connect 105 0 106 0;
#X connect 108 0 110 1;
#X connect 109 0 108 0;
#X connect 110 0 101 0;
#X connect 111 0 110 0;
#X connect 112 0 114 0;
#X connect 113 0 99 2;
#X connect 114 0 113 0;
#X connect 115 0 97 0;
#X connect 116 0 69 0;
#X connect 117 0 118 0;
#X connect 118 0 119 0;
#X connect 120 0 117 0;
#X coords 0 -1 1 1 210 305 2 70 60;
