#N canvas 652 315 1110 645 10;
#X obj 30 162 nl_seq;
#X obj 57 109 nl_bpm;
#X obj 30 133 metro;
#X obj 30 27 tgl 15 0 empty empty start 17 7 0 10 -262144 -1 -1 1 1
;
#X obj 120 50 loadbang;
#X msg 57 67 120;
#X obj 65 42 bng 15 250 50 0 nl.reset empty reset 17 7 0 10 -262144
-1 -1;
#X obj 303 138 r nl.reset;
#X obj 30 271 nl_syntKick;
#X obj 30 513 dac~;
#X obj 30 478 *~ 0;
#X obj 76 375 vsl 30 100 0 1 0 0 empty empty empty 0 -9 0 10 -262144
-1 -1 9900 1;
#X floatatom 57 89 5 0 0 0 - - -, f 5;
#X connect 0 0 8 0;
#X connect 1 0 2 1;
#X connect 2 0 0 0;
#X connect 3 0 2 0;
#X connect 3 0 6 0;
#X connect 4 0 5 0;
#X connect 5 0 12 0;
#X connect 7 0 0 1;
#X connect 8 0 10 0;
#X connect 10 0 9 0;
#X connect 10 0 9 1;
#X connect 11 0 10 1;
#X connect 12 0 1 0;
