#N canvas 331 218 1095 623 10;
#X obj 124 184 tgl 15 0 empty empty empty 17 7 0 10 -221639 -1 -1 0
1;
#X obj 141 184 tgl 15 0 empty empty empty 17 7 0 10 -221639 -1 -1 0
1;
#X obj 158 184 tgl 15 0 empty empty empty 17 7 0 10 -221639 -1 -1 0
1;
#X obj 176 184 tgl 15 0 empty empty empty 17 7 0 10 -221639 -1 -1 0
1;
#X obj 193 184 tgl 15 0 empty empty empty 17 7 0 10 -256322 -1 -1 0
1;
#X obj 210 184 tgl 15 0 empty empty empty 17 7 0 10 -256322 -1 -1 0
1;
#X obj 227 184 tgl 15 0 empty empty empty 17 7 0 10 -256322 -1 -1 0
1;
#X obj 244 184 tgl 15 0 empty empty empty 17 7 0 10 -256322 -1 -1 0
1;
#X obj 261 184 tgl 15 0 empty empty empty 17 7 0 10 -253200 -1 -1 0
1;
#X obj 278 184 tgl 15 0 empty empty empty 17 7 0 10 -253200 -1 -1 0
1;
#X obj 295 184 tgl 15 0 empty empty empty 17 7 0 10 -253200 -1 -1 0
1;
#X obj 312 184 tgl 15 0 empty empty empty 17 7 0 10 -253200 -1 -1 0
1;
#X obj 329 184 tgl 15 0 empty empty empty 17 7 0 10 -134393 -1 -1 0
1;
#X obj 346 184 tgl 15 0 empty empty empty 17 7 0 10 -134393 -1 -1 0
1;
#X obj 363 184 tgl 15 0 empty empty empty 17 7 0 10 -134393 -1 -1 0
1;
#X obj 380 184 tgl 15 0 empty empty empty 17 7 0 10 -134393 -1 -1 0
1;
#X obj 124 164 hradio 15 1 0 8 empty empty empty 0 -8 0 10 -262144
-1 -1 1;
#X obj 124 102 unpack 0 1 2 3 4 5 6 7 8 9 10 11 12 13 14 15;
#X obj 556 441 outlet;
#X obj 56 99 loadbang;
#X msg 56 122 0;
#X obj 629 106 select 1 2 3 4 5 6 7 8;
#X symbolatom 247 164 10 0 0 0 - nl.instument nl.instumentsend, f
10;
#X obj 629 83 + 1;
#X msg 124 54 0 0 0 0 0 0 0 0 0 0 0 0 0 0 0 0;
#X text 122 38 clear;
#X obj 698 317 inlet;
#N canvas 192 487 450 300 count 0;
#X obj 151 150 f;
#X obj 176 150 + 1;
#X obj 151 172 mod 16;
#X obj 151 99 inlet;
#X obj 151 197 outlet;
#X obj 199 99 inlet;
#X msg 199 124 0;
#X text 209 83 reset;
#X connect 0 0 1 0;
#X connect 0 0 2 0;
#X connect 1 0 0 1;
#X connect 2 0 4 0;
#X connect 3 0 0 0;
#X connect 5 0 6 0;
#X connect 6 0 0 0;
#X restore 761 334 pd count;
#X obj 39 286 t b;
#X obj 124 325 pack 0 0 0 0 0 0 0 0 0 0 0 0 0 0 0 0 s;
#X obj 593 160 s nl.instument;
#X obj 716 158 s nl.instumentSymbol;
#X obj 405 296 r nl.instumentSymbol;
#N canvas 854 218 601 374 nl.set________ 0;
#X obj 33 30 inlet;
#X obj 73 30 inlet;
#X obj 112 30 inlet;
#X obj 152 30 inlet;
#X obj 191 30 inlet;
#X obj 231 30 inlet;
#X obj 270 30 inlet;
#X obj 310 30 inlet;
#X msg 229 118 set raid;
#X obj 157 179 outlet;
#X msg 228 57 set close_hh;
#X msg 241 82 set open_hh;
#X msg 122 87 set tom_mid;
#X msg 122 59 set tom_low;
#X msg 33 59 set kick;
#X msg 30 89 set snare;
#X msg 122 115 set tom_high;
#X connect 0 0 14 0;
#X connect 1 0 15 0;
#X connect 2 0 13 0;
#X connect 3 0 12 0;
#X connect 4 0 16 0;
#X connect 5 0 10 0;
#X connect 6 0 11 0;
#X connect 7 0 8 0;
#X connect 8 0 9 0;
#X connect 10 0 9 0;
#X connect 11 0 9 0;
#X connect 12 0 9 0;
#X connect 13 0 9 0;
#X connect 14 0 9 0;
#X connect 15 0 9 0;
#X connect 16 0 9 0;
#X restore 593 138 pd nl.set________;
#N canvas 1050 438 546 374 nl.symbol____ 0;
#X obj 33 30 inlet;
#X obj 73 30 inlet;
#X obj 112 30 inlet;
#X obj 152 30 inlet;
#X obj 191 30 inlet;
#X obj 231 30 inlet;
#X obj 270 30 inlet;
#X obj 310 30 inlet;
#X obj 157 179 outlet;
#X msg 16 60 symbol nl.kick;
#X msg 13 89 symbol nl.snare;
#X msg 126 58 symbol nl.tom_low;
#X msg 126 86 symbol nl.tom_mid;
#X msg 127 114 symbol nl.tom_high;
#X msg 265 55 symbol nl.close_hh;
#X msg 265 84 symbol nl.open_hh;
#X msg 263 112 symbol nl.raid;
#X connect 0 0 9 0;
#X connect 1 0 10 0;
#X connect 2 0 11 0;
#X connect 3 0 12 0;
#X connect 4 0 13 0;
#X connect 5 0 14 0;
#X connect 6 0 15 0;
#X connect 7 0 16 0;
#X connect 9 0 8 0;
#X connect 10 0 8 0;
#X connect 11 0 8 0;
#X connect 12 0 8 0;
#X connect 13 0 8 0;
#X connect 14 0 8 0;
#X connect 15 0 8 0;
#X connect 16 0 8 0;
#X restore 716 137 pd nl.symbol____;
#X msg 124 372 \; \$17 0 \$1 \$2 \$3 \$4 \$5 \$6 \$7 \$8 \$9 \$10 \$11
\$12 \$13 \$14 \$15 \$16;
#X obj 408 7 r nl.instumentSymbol;
#X obj 327 24 t b;
#X obj 327 45 delay 10;
#X obj 346 165 bng 15 250 50 0 empty empty clear 17 7 0 10 -262144
-1 -1;
#X obj 629 62 r nl.instumentNo;
#X text 409 148 UI;
#X obj 12 202 s nl.instumentNo;
#X obj 39 308 delay 10;
#X obj 266 152 hradio 8 1 0 16 nl.seq.currentStepSend nl.seq.currentstep
empty 0 -8 0 10 -262144 -1 -1 0;
#X obj 806 272 inlet;
#X obj 806 296 t b;
#X text 813 312 reset;
#X obj 655 441 outlet;
#X obj 761 441 outlet;
#X obj 879 441 outlet;
#X obj 867 31 table nl.kick 16;
#X obj 867 53 table nl.snare 16;
#X obj 867 75 table nl.tom_low 16;
#X obj 867 97 table nl.tom_mid 16;
#X obj 867 119 table nl.tom_high 16;
#X obj 867 141 table nl.close_hh 16;
#X obj 867 163 table nl.open_hh 16;
#X obj 867 185 table nl.raid 16;
#X floatatom 884 351 5 0 0 0 - - nl.seq.currentstep, f 5;
#X obj 556 394 tabread nl.kick;
#X obj 655 394 tabread nl.snare;
#X obj 761 394 tabread nl.tom_low;
#X obj 879 394 tabread nl.tom_mid;
#X obj 551 489 tabread nl.tom_high;
#X obj 676 489 tabread nl.close_hh;
#X obj 807 489 tabread nl.open_hh;
#X obj 925 489 tabread nl.raid;
#N canvas 357 549 450 300 nl.moses 0;
#X obj 184 97 inlet;
#X obj 184 119 moses 1;
#X obj 223 141 t b;
#X obj 223 163 outlet;
#X connect 0 0 1 0;
#X connect 1 1 2 0;
#X connect 2 0 3 0;
#X restore 556 417 pd nl.moses;
#N canvas 357 549 450 300 nl.moses 0;
#X obj 184 97 inlet;
#X obj 184 119 moses 1;
#X obj 223 141 t b;
#X obj 223 163 outlet;
#X connect 0 0 1 0;
#X connect 1 1 2 0;
#X connect 2 0 3 0;
#X restore 655 417 pd nl.moses;
#N canvas 357 549 450 300 nl.moses 0;
#X obj 184 97 inlet;
#X obj 184 119 moses 1;
#X obj 223 141 t b;
#X obj 223 163 outlet;
#X connect 0 0 1 0;
#X connect 1 1 2 0;
#X connect 2 0 3 0;
#X restore 761 417 pd nl.moses;
#N canvas 357 549 450 300 nl.moses 0;
#X obj 184 97 inlet;
#X obj 184 119 moses 1;
#X obj 223 141 t b;
#X obj 223 163 outlet;
#X connect 0 0 1 0;
#X connect 1 1 2 0;
#X connect 2 0 3 0;
#X restore 879 417 pd nl.moses;
#X obj 551 539 outlet;
#X obj 676 538 outlet;
#X obj 807 539 outlet;
#X obj 925 538 outlet;
#N canvas 357 549 450 300 nl.moses 0;
#X obj 184 97 inlet;
#X obj 184 119 moses 1;
#X obj 223 141 t b;
#X obj 223 163 outlet;
#X connect 0 0 1 0;
#X connect 1 1 2 0;
#X connect 2 0 3 0;
#X restore 551 515 pd nl.moses;
#N canvas 357 549 450 300 nl.moses 0;
#X obj 184 97 inlet;
#X obj 184 119 moses 1;
#X obj 223 141 t b;
#X obj 223 163 outlet;
#X connect 0 0 1 0;
#X connect 1 1 2 0;
#X connect 2 0 3 0;
#X restore 676 514 pd nl.moses;
#N canvas 357 549 450 300 nl.moses 0;
#X obj 184 97 inlet;
#X obj 184 119 moses 1;
#X obj 223 141 t b;
#X obj 223 163 outlet;
#X connect 0 0 1 0;
#X connect 1 1 2 0;
#X connect 2 0 3 0;
#X restore 807 515 pd nl.moses;
#N canvas 357 549 450 300 nl.moses 0;
#X obj 184 97 inlet;
#X obj 184 119 moses 1;
#X obj 223 141 t b;
#X obj 223 163 outlet;
#X connect 0 0 1 0;
#X connect 1 1 2 0;
#X connect 2 0 3 0;
#X restore 925 514 pd nl.moses;
#X obj 327 67 array get kick;
#X connect 0 0 28 0;
#X connect 0 0 29 0;
#X connect 1 0 28 0;
#X connect 1 0 29 1;
#X connect 2 0 28 0;
#X connect 2 0 29 2;
#X connect 3 0 28 0;
#X connect 3 0 29 3;
#X connect 4 0 28 0;
#X connect 4 0 29 4;
#X connect 5 0 28 0;
#X connect 5 0 29 5;
#X connect 6 0 28 0;
#X connect 6 0 29 6;
#X connect 7 0 28 0;
#X connect 7 0 29 7;
#X connect 8 0 28 0;
#X connect 8 0 29 8;
#X connect 9 0 28 0;
#X connect 9 0 29 9;
#X connect 10 0 28 0;
#X connect 10 0 29 10;
#X connect 11 0 28 0;
#X connect 11 0 29 11;
#X connect 12 0 28 0;
#X connect 12 0 29 12;
#X connect 13 0 28 0;
#X connect 13 0 29 13;
#X connect 14 0 28 0;
#X connect 14 0 29 14;
#X connect 15 0 28 0;
#X connect 15 0 29 15;
#X connect 16 0 42 0;
#X connect 17 0 0 0;
#X connect 17 1 1 0;
#X connect 17 2 2 0;
#X connect 17 3 3 0;
#X connect 17 4 4 0;
#X connect 17 5 5 0;
#X connect 17 6 6 0;
#X connect 17 7 7 0;
#X connect 17 8 8 0;
#X connect 17 9 9 0;
#X connect 17 10 10 0;
#X connect 17 11 11 0;
#X connect 17 12 12 0;
#X connect 17 13 13 0;
#X connect 17 14 14 0;
#X connect 17 15 15 0;
#X connect 19 0 20 0;
#X connect 20 0 16 0;
#X connect 21 0 33 0;
#X connect 21 0 34 0;
#X connect 21 1 33 1;
#X connect 21 1 34 1;
#X connect 21 2 33 2;
#X connect 21 2 34 2;
#X connect 21 3 33 3;
#X connect 21 3 34 3;
#X connect 21 4 33 4;
#X connect 21 4 34 4;
#X connect 21 5 33 5;
#X connect 21 5 34 5;
#X connect 21 6 33 6;
#X connect 21 6 34 6;
#X connect 21 7 33 7;
#X connect 21 7 34 7;
#X connect 23 0 21 0;
#X connect 24 0 17 0;
#X connect 26 0 27 0;
#X connect 27 0 59 0;
#X connect 27 0 60 0;
#X connect 27 0 61 0;
#X connect 27 0 62 0;
#X connect 27 0 63 0;
#X connect 27 0 64 0;
#X connect 27 0 65 0;
#X connect 27 0 66 0;
#X connect 27 0 67 0;
#X connect 28 0 43 0;
#X connect 29 0 35 0;
#X connect 32 0 29 16;
#X connect 33 0 30 0;
#X connect 34 0 31 0;
#X connect 36 0 37 0;
#X connect 36 0 80 2;
#X connect 37 0 38 0;
#X connect 38 0 80 0;
#X connect 39 0 24 0;
#X connect 40 0 23 0;
#X connect 43 0 29 0;
#X connect 45 0 46 0;
#X connect 46 0 27 1;
#X connect 60 0 68 0;
#X connect 61 0 69 0;
#X connect 62 0 70 0;
#X connect 63 0 71 0;
#X connect 64 0 76 0;
#X connect 65 0 77 0;
#X connect 66 0 78 0;
#X connect 67 0 79 0;
#X connect 68 0 18 0;
#X connect 69 0 48 0;
#X connect 70 0 49 0;
#X connect 71 0 50 0;
#X connect 76 0 72 0;
#X connect 77 0 73 0;
#X connect 78 0 74 0;
#X connect 79 0 75 0;
#X connect 80 0 17 0;
#X coords 0 -1 1 1 280 55 1 120 148;
