#N canvas 155 252 893 720 10;
#X obj 124 184 tgl 15 0 empty empty empty 17 7 0 10 -221639 -1 -1 0
1;
#X obj 141 184 tgl 15 0 empty empty empty 17 7 0 10 -221639 -1 -1 0
1;
#X obj 158 184 tgl 15 0 empty empty empty 17 7 0 10 -221639 -1 -1 0
1;
#X obj 176 184 tgl 15 0 empty empty empty 17 7 0 10 -221639 -1 -1 0
1;
#X obj 193 184 tgl 15 0 empty empty empty 17 7 0 10 -256322 -1 -1 0
1;
#X obj 210 184 tgl 15 0 empty empty empty 17 7 0 10 -256322 -1 -1 0
1;
#X obj 227 184 tgl 15 0 empty empty empty 17 7 0 10 -256322 -1 -1 0
1;
#X obj 244 184 tgl 15 0 empty empty empty 17 7 0 10 -256322 -1 -1 0
1;
#X obj 261 184 tgl 15 0 empty empty empty 17 7 0 10 -253200 -1 -1 0
1;
#X obj 278 184 tgl 15 0 empty empty empty 17 7 0 10 -253200 -1 -1 0
1;
#X obj 295 184 tgl 15 0 empty empty empty 17 7 0 10 -253200 -1 -1 0
1;
#X obj 312 184 tgl 15 0 empty empty empty 17 7 0 10 -253200 -1 -1 0
1;
#X obj 329 184 tgl 15 0 empty empty empty 17 7 0 10 -134393 -1 -1 0
1;
#X obj 346 184 tgl 15 0 empty empty empty 17 7 0 10 -134393 -1 -1 0
1;
#X obj 363 184 tgl 15 0 empty empty empty 17 7 0 10 -134393 -1 -1 0
1;
#X obj 380 184 tgl 15 0 empty empty empty 17 7 0 10 -134393 -1 -1 0
1;
#X obj 124 164 hradio 15 1 0 8 empty empty empty 0 -8 0 10 -262144
-1 -1 6;
#X obj 124 102 unpack 0 1 2 3 4 5 6 7 8 9 10 11 12 13 14 15;
#X obj 110 621 outlet;
#X obj 56 99 loadbang;
#X msg 56 122 0;
#X obj 547 124 select 1 2 3 4 5 6 7 8;
#X symbolatom 247 164 10 0 0 0 - nl.instument nl.instumentsend, f
10;
#X obj 547 101 + 1;
#X msg 124 54 0 0 0 0 0 0 0 0 0 0 0 0 0 0 0 0;
#X text 122 38 clear;
#X obj 348 476 inlet;
#X obj 71 546 tabread kick;
#N canvas 192 487 450 300 count 0;
#X obj 151 150 f;
#X obj 176 150 + 1;
#X obj 151 172 mod 16;
#X obj 151 99 inlet;
#X obj 151 197 outlet;
#X obj 199 99 inlet;
#X msg 199 124 0;
#X text 209 83 reset;
#X connect 0 0 1 0;
#X connect 0 0 2 0;
#X connect 1 0 0 1;
#X connect 2 0 4 0;
#X connect 3 0 0 0;
#X connect 5 0 6 0;
#X connect 6 0 0 0;
#X restore 411 493 pd count;
#X obj 39 286 t b;
#X obj 71 575 moses 1;
#X obj 110 597 t b;
#X obj 124 325 pack 0 0 0 0 0 0 0 0 0 0 0 0 0 0 0 0 s;
#X obj 511 178 s nl.instument;
#X obj 634 176 s nl.instumentSymbol;
#X obj 405 296 r nl.instumentSymbol;
#N canvas 854 218 601 374 nl.set________ 0;
#X obj 33 30 inlet;
#X obj 73 30 inlet;
#X obj 112 30 inlet;
#X obj 152 30 inlet;
#X obj 191 30 inlet;
#X obj 231 30 inlet;
#X obj 270 30 inlet;
#X obj 310 30 inlet;
#X msg 229 118 set raid;
#X obj 157 179 outlet;
#X msg 228 57 set close_hh;
#X msg 241 82 set open_hh;
#X msg 122 87 set tom_mid;
#X msg 122 59 set tom_low;
#X msg 33 59 set kick;
#X msg 30 89 set snare;
#X msg 122 115 set tom_high;
#X connect 0 0 14 0;
#X connect 1 0 15 0;
#X connect 2 0 13 0;
#X connect 3 0 12 0;
#X connect 4 0 16 0;
#X connect 5 0 10 0;
#X connect 6 0 11 0;
#X connect 7 0 8 0;
#X connect 8 0 9 0;
#X connect 10 0 9 0;
#X connect 11 0 9 0;
#X connect 12 0 9 0;
#X connect 13 0 9 0;
#X connect 14 0 9 0;
#X connect 15 0 9 0;
#X connect 16 0 9 0;
#X restore 511 156 pd nl.set________;
#N canvas 857 213 601 374 nl.symbol____ 0;
#X obj 33 30 inlet;
#X obj 73 30 inlet;
#X obj 112 30 inlet;
#X obj 152 30 inlet;
#X obj 191 30 inlet;
#X obj 231 30 inlet;
#X obj 270 30 inlet;
#X obj 310 30 inlet;
#X msg 33 60 symbol kick;
#X msg 122 59 symbol tom_low;
#X msg 231 85 symbol open_hh;
#X msg 30 89 symbol snare;
#X msg 122 87 symbol tom_mid;
#X msg 122 115 symbol tom_high;
#X obj 157 179 outlet;
#X msg 231 56 symbol close_hh;
#X msg 229 118 symbol raid;
#X connect 0 0 8 0;
#X connect 1 0 11 0;
#X connect 2 0 9 0;
#X connect 3 0 12 0;
#X connect 4 0 13 0;
#X connect 5 0 15 0;
#X connect 6 0 10 0;
#X connect 7 0 16 0;
#X connect 8 0 14 0;
#X connect 9 0 14 0;
#X connect 10 0 14 0;
#X connect 11 0 14 0;
#X connect 12 0 14 0;
#X connect 13 0 14 0;
#X connect 15 0 14 0;
#X connect 16 0 14 0;
#X restore 634 155 pd nl.symbol____;
#X msg 124 372 \; \$17 0 \$1 \$2 \$3 \$4 \$5 \$6 \$7 \$8 \$9 \$10 \$11
\$12 \$13 \$14 \$15 \$16;
#N canvas 984 82 936 998 arrays 0;
#N canvas 49 97 450 300 (subpatch) 0;
#X array kick 16 float 3;
#A 0 1 0 0 0 1 0 0 0 1 0 0 0 1 0 0 0;
#X coords 0 1 16 -1 200 140 1;
#X restore -733 57 graph;
#N canvas 49 102 450 300 (subpatch) 0;
#X array snare 16 float 3;
#A 0 0 0 0 1 0 0 1 0 0 0 1 0 1 0 0 0;
#X coords 0 1 16 -1 200 140 1;
#X restore -523 58 graph;
#N canvas 49 92 450 300 (subpatch) 0;
#X array tom_low 16 float 3;
#A 0 0 0 0 0 0 0 0 0 0 0 0 0 0 0 0 0;
#X coords 0 1 16 -1 200 140 1;
#X restore -736 217 graph;
#N canvas 49 97 450 300 (subpatch) 0;
#X array tom_mid 16 float 3;
#A 0 0 0 0 0 0 0 0 0 0 0 0 0 0 0 0 0;
#X coords 0 1 16 -1 200 140 1;
#X restore -526 218 graph;
#N canvas 49 102 450 300 (subpatch) 0;
#X array tom_high 16 float 3;
#A 0 0 0 0 0 0 0 0 0 0 0 0 0 0 0 0 0;
#X coords 0 1 16 -1 200 140 1;
#X restore -314 219 graph;
#N canvas 49 102 450 300 (subpatch) 0;
#X array close_hh 16 float 3;
#A 0 1 1 1 1 1 1 1 1 1 1 1 1 1 1 1 0;
#X coords 0 1 16 -1 200 140 1;
#X restore -735 395 graph;
#N canvas 49 97 450 300 (subpatch) 0;
#X array open_hh 16 float 3;
#A 0 0 0 0 0 0 0 0 0 0 0 0 0 0 0 0 0;
#X coords 0 1 16 -1 200 140 1;
#X restore -526 396 graph;
#N canvas 49 107 450 300 (subpatch) 0;
#X array raid 16 float 3;
#A 0 0 0 0 0 0 0 0 0 0 0 0 0 0 0 0 0;
#X coords 0 1 16 -1 200 140 1;
#X restore -314 397 graph;
#X restore 696 67 pd arrays;
#X obj 327 67 array get kick;
#X obj 408 7 r nl.instumentSymbol;
#X obj 327 24 t b;
#X obj 327 45 delay 10;
#X obj 346 165 bng 15 250 50 0 empty empty clear 17 7 0 10 -262144
-1 -1;
#X obj 547 80 r nl.instumentNo;
#X text 409 148 UI;
#X obj 12 202 s nl.instumentNo;
#X obj 39 308 delay 10;
#X obj 266 152 hradio 8 1 0 16 empty empty empty 0 -8 0 10 -262144
-1 -1 1;
#X obj 456 431 inlet;
#X obj 456 455 t b;
#X text 463 471 reset;
#X obj 201 621 outlet;
#X obj 162 575 moses 1;
#X obj 201 597 t b;
#X obj 292 621 outlet;
#X obj 253 575 moses 1;
#X obj 292 597 t b;
#X obj 390 621 outlet;
#X obj 351 575 moses 1;
#X obj 390 597 t b;
#X obj 491 620 outlet;
#X obj 452 574 moses 1;
#X obj 491 596 t b;
#X obj 601 621 outlet;
#X obj 562 575 moses 1;
#X obj 601 597 t b;
#X obj 162 546 tabread snare;
#X obj 253 546 tabread tom_low;
#X obj 351 546 tabread tom_mid;
#X obj 452 545 tabread tom_high;
#X obj 712 618 outlet;
#X obj 673 572 moses 1;
#X obj 712 594 t b;
#X obj 562 546 tabread close_hh;
#X obj 673 543 tabread open_hh;
#X obj 820 620 outlet;
#X obj 781 574 moses 1;
#X obj 820 596 t b;
#X obj 781 545 tabread raid;
#X connect 0 0 29 0;
#X connect 0 0 32 0;
#X connect 1 0 29 0;
#X connect 1 0 32 1;
#X connect 2 0 29 0;
#X connect 2 0 32 2;
#X connect 3 0 29 0;
#X connect 3 0 32 3;
#X connect 4 0 29 0;
#X connect 4 0 32 4;
#X connect 5 0 29 0;
#X connect 5 0 32 5;
#X connect 6 0 29 0;
#X connect 6 0 32 6;
#X connect 7 0 29 0;
#X connect 7 0 32 7;
#X connect 8 0 29 0;
#X connect 8 0 32 8;
#X connect 9 0 29 0;
#X connect 9 0 32 9;
#X connect 10 0 29 0;
#X connect 10 0 32 10;
#X connect 11 0 29 0;
#X connect 11 0 32 11;
#X connect 12 0 29 0;
#X connect 12 0 32 12;
#X connect 13 0 29 0;
#X connect 13 0 32 13;
#X connect 14 0 29 0;
#X connect 14 0 32 14;
#X connect 15 0 29 0;
#X connect 15 0 32 15;
#X connect 16 0 47 0;
#X connect 17 0 0 0;
#X connect 17 1 1 0;
#X connect 17 2 2 0;
#X connect 17 3 3 0;
#X connect 17 4 4 0;
#X connect 17 5 5 0;
#X connect 17 6 6 0;
#X connect 17 7 7 0;
#X connect 17 8 8 0;
#X connect 17 9 9 0;
#X connect 17 10 10 0;
#X connect 17 11 11 0;
#X connect 17 12 12 0;
#X connect 17 13 13 0;
#X connect 17 14 14 0;
#X connect 17 15 15 0;
#X connect 19 0 20 0;
#X connect 20 0 16 0;
#X connect 21 0 36 0;
#X connect 21 0 37 0;
#X connect 21 1 36 1;
#X connect 21 1 37 1;
#X connect 21 2 36 2;
#X connect 21 2 37 2;
#X connect 21 3 36 3;
#X connect 21 3 37 3;
#X connect 21 4 36 4;
#X connect 21 4 37 4;
#X connect 21 5 36 5;
#X connect 21 5 37 5;
#X connect 21 6 36 6;
#X connect 21 6 37 6;
#X connect 21 7 36 7;
#X connect 21 7 37 7;
#X connect 23 0 21 0;
#X connect 24 0 17 0;
#X connect 26 0 28 0;
#X connect 27 0 30 0;
#X connect 28 0 27 0;
#X connect 28 0 49 0;
#X connect 28 0 68 0;
#X connect 28 0 69 0;
#X connect 28 0 70 0;
#X connect 28 0 71 0;
#X connect 28 0 75 0;
#X connect 28 0 76 0;
#X connect 28 0 80 0;
#X connect 29 0 48 0;
#X connect 30 1 31 0;
#X connect 31 0 18 0;
#X connect 32 0 38 0;
#X connect 35 0 32 16;
#X connect 36 0 33 0;
#X connect 37 0 34 0;
#X connect 40 0 17 0;
#X connect 41 0 40 2;
#X connect 41 0 42 0;
#X connect 42 0 43 0;
#X connect 43 0 40 0;
#X connect 44 0 24 0;
#X connect 45 0 23 0;
#X connect 48 0 32 0;
#X connect 50 0 51 0;
#X connect 51 0 28 1;
#X connect 54 1 55 0;
#X connect 55 0 53 0;
#X connect 57 1 58 0;
#X connect 58 0 56 0;
#X connect 60 1 61 0;
#X connect 61 0 59 0;
#X connect 63 1 64 0;
#X connect 64 0 62 0;
#X connect 66 1 67 0;
#X connect 67 0 65 0;
#X connect 68 0 54 0;
#X connect 69 0 57 0;
#X connect 70 0 60 0;
#X connect 71 0 63 0;
#X connect 73 1 74 0;
#X connect 74 0 72 0;
#X connect 75 0 66 0;
#X connect 76 0 73 0;
#X connect 78 1 79 0;
#X connect 79 0 77 0;
#X connect 80 0 78 0;
#X coords 0 -1 1 1 280 55 1 120 148;
