#N canvas 975 102 936 998 10;
#X floatatom 503 263 5 0 48 2 pitch - nl.kick.pitch, f 5;
#X obj 503 233 nbx 5 14 0 1000 0 0 nl.kick.freq empty freq 0 -8 0 10
-262144 -1 -1 123.8 256;
#X obj 67 505 osc~;
#X obj 68 478 vline~;
#X obj 202 740 *~ 0.5;
#X obj 283 165 bng 15 250 50 0 empty empty empty 17 7 0 10 -262144
-1 -1;
#X msg 68 450 \$1 \, \$2 \$3;
#X obj 68 424 pack f f f;
#X obj 85 339 ftom;
#X obj 123 366 -;
#X obj 122 391 mtof;
#X floatatom 565 233 5 1 500 2 glide - nl.kick.glide, f 5;
#X obj 576 691 vline~;
#X msg 576 669 \$1 5 \, 0 \$2 5;
#X obj 202 707 *~;
#X obj 621 621 r nl.kick.decay;
#X obj 576 647 pack 1 0;
#X msg 576 613 1;
#X obj 155 391 r nl.kick.glide;
#X floatatom 564 263 5 0 0 2 decay - nl.kick.decay, f 5;
#X obj 159 328 r nl.kick.pitch;
#X obj 66 302 r nl.kick.freq;
#X obj 182 351 t b;
#X obj 285 630 noise~;
#X obj 285 654 *~ 0.03;
#X obj 269 545 osc~;
#X obj 270 518 vline~;
#X msg 270 490 \$1 \, \$2 \$3;
#X obj 270 464 pack f f f;
#X obj 287 379 ftom;
#X obj 325 406 -;
#X obj 324 431 mtof;
#X obj 357 431 r nl.kick.glide;
#X obj 361 368 r nl.kick.pitch;
#X obj 268 288 r nl.kick.freq;
#X obj 384 391 t b;
#X obj 275 329 - 100;
#X msg 503 157 36;
#X obj 537 76 loadbang;
#X obj 203 772 outlet~;
#X obj 283 138 inlet;
#X msg 503 123 123.8;
#X msg 565 123 50;
#X msg 565 156 173;
#X connect 2 0 14 0;
#X connect 3 0 2 0;
#X connect 4 0 39 0;
#X connect 5 0 7 0;
#X connect 5 0 17 0;
#X connect 5 0 28 0;
#X connect 6 0 3 0;
#X connect 7 0 6 0;
#X connect 8 0 9 0;
#X connect 9 0 10 0;
#X connect 10 0 7 1;
#X connect 12 0 14 1;
#X connect 13 0 12 0;
#X connect 14 0 4 0;
#X connect 15 0 16 1;
#X connect 16 0 13 0;
#X connect 17 0 16 0;
#X connect 18 0 7 2;
#X connect 20 0 9 1;
#X connect 20 0 22 0;
#X connect 21 0 8 0;
#X connect 21 0 7 0;
#X connect 22 0 9 0;
#X connect 23 0 24 0;
#X connect 24 0 14 0;
#X connect 25 0 14 0;
#X connect 26 0 25 0;
#X connect 27 0 26 0;
#X connect 28 0 27 0;
#X connect 29 0 30 0;
#X connect 30 0 31 0;
#X connect 31 0 28 1;
#X connect 32 0 28 2;
#X connect 33 0 30 1;
#X connect 33 0 35 0;
#X connect 34 0 36 0;
#X connect 35 0 30 0;
#X connect 36 0 29 0;
#X connect 36 0 28 0;
#X connect 37 0 0 0;
#X connect 38 0 41 0;
#X connect 38 0 37 0;
#X connect 38 0 42 0;
#X connect 38 0 43 0;
#X connect 40 0 5 0;
#X connect 41 0 1 0;
#X connect 42 0 11 0;
#X connect 43 0 19 0;
#X coords 0 -1 1 1 100 80 1 500 200;
